<?xml version="1.0" standalone="no"?>
<!DOCTYPE svg PUBLIC "-//W3C//DTD SVG 20010904//EN"
 "http://www.w3.org/TR/2001/REC-SVG-20010904/DTD/svg10.dtd">
<svg version="1.0" xmlns="http://www.w3.org/2000/svg"
 width="400.000000pt" height="400.000000pt" viewBox="0 0 400.000000 400.000000"
 preserveAspectRatio="xMidYMid meet">

<g transform="translate(0.000000,400.000000) scale(0.100000,-0.100000)"
fill="#000000" stroke="none">
<path d="M1625 3879 c-370 -22 -717 -97 -915 -200 -187 -97 -275 -197 -275
-314 0 -85 28 -134 150 -267 278 -301 459 -561 729 -1045 138 -247 258 -495
394 -813 126 -293 176 -427 226 -596 37 -129 69 -274 62 -281 -6 -6 -128 217
-196 362 -34 72 -115 252 -180 401 -214 490 -289 641 -434 874 -139 224 -337
485 -559 740 -191 219 -241 263 -262 229 -15 -23 9 -62 102 -171 239 -280 458
-607 666 -994 99 -185 173 -342 328 -703 201 -466 350 -753 488 -938 88 -119
150 -142 188 -70 22 42 29 194 14 295 -29 185 -115 465 -218 712 -200 477
-282 656 -423 915 -291 535 -521 875 -769 1138 -156 164 -172 197 -136 267 43
83 288 191 556 244 273 56 349 60 944 61 594 0 662 -4 1010 -56 203 -31 255
-48 204 -67 -13 -5 -105 -29 -204 -52 -692 -165 -1091 -298 -1487 -497 -188
-94 -228 -124 -228 -168 0 -48 78 -47 185 1 400 181 862 332 1563 513 284 74
368 104 402 148 26 33 25 62 -3 104 -69 103 -264 163 -657 203 -324 33 -926
45 -1265 25z"/>
<path d="M3434 3243 c-14 -15 -37 -46 -49 -68 -48 -82 -161 -382 -305 -810
-81 -242 -168 -492 -193 -555 -128 -330 -313 -750 -479 -1093 -61 -125 -108
-230 -104 -234 18 -19 50 32 158 257 236 491 346 754 658 1575 264 693 294
767 348 849 35 53 43 72 35 85 -17 26 -41 24 -69 -6z"/>
</g>
</svg>
