<?xml version="1.0" standalone="no"?>
<!DOCTYPE svg PUBLIC "-//W3C//DTD SVG 20010904//EN"
 "http://www.w3.org/TR/2001/REC-SVG-20010904/DTD/svg10.dtd">
<svg version="1.0" xmlns="http://www.w3.org/2000/svg"
 width="547.000000pt" height="281.000000pt" viewBox="0 0 547.000000 281.000000"
 preserveAspectRatio="xMidYMid meet">

<g transform="translate(0.000000,281.000000) scale(0.100000,-0.100000)"
fill="#000000" stroke="none">
<path d="M2280 2789 c-264 -17 -450 -108 -450 -220 0 -54 6 -63 126 -196 108
-119 167 -209 302 -458 94 -173 247 -517 279 -627 54 -191 -2 -113 -137 189
-51 115 -112 249 -136 300 -70 152 -224 369 -369 521 -137 144 -120 85 30
-103 40 -49 96 -126 125 -170 58 -89 244 -461 285 -570 33 -90 158 -328 197
-377 42 -53 68 -66 85 -42 26 36 5 197 -48 355 -98 291 -310 713 -449 894 -21
28 -82 99 -134 158 -53 60 -96 115 -96 123 0 27 53 70 115 94 33 12 111 33
174 46 101 20 145 23 410 26 232 2 326 -1 435 -14 201 -25 203 -41 10 -79
-315 -62 -754 -233 -754 -294 0 -23 56 -18 103 9 93 54 307 124 664 216 231
60 271 84 223 135 -30 32 -110 61 -217 80 -95 17 -543 19 -773 4z"/>
<path d="M3216 2497 c-27 -40 -76 -167 -156 -402 -101 -297 -204 -548 -312
-757 -27 -54 -48 -103 -45 -110 11 -30 207 406 341 759 108 285 142 369 181
449 19 38 35 73 35 77 0 16 -31 5 -44 -16z"/>
<path d="M5216 1095 c-74 -26 -136 -110 -136 -185 0 -70 59 -155 123 -179 16
-6 51 -11 78 -11 110 0 189 79 189 190 0 91 -56 165 -145 189 -50 14 -61 13
-109 -4z m144 -47 c57 -39 75 -72 75 -138 0 -90 -53 -149 -142 -157 -98 -10
-175 60 -175 156 0 72 38 130 102 154 38 14 108 6 140 -15z"/>
<path d="M5220 914 c0 -95 2 -105 18 -102 12 2 18 15 20 46 5 61 41 55 57 -11
7 -28 30 -46 42 -34 3 4 -1 27 -10 53 -12 38 -13 50 -2 71 26 49 -5 83 -77 83
l-48 0 0 -106z m95 46 c0 -20 -6 -26 -27 -28 -25 -3 -28 0 -28 28 0 28 3 31
28 28 21 -2 27 -8 27 -28z"/>
<path d="M195 870 c-65 -25 -130 -89 -164 -160 -23 -49 -26 -67 -26 -165 0
-126 15 -172 81 -245 99 -109 280 -132 393 -49 50 36 67 65 50 85 -18 22 -37
17 -81 -21 -114 -97 -295 -49 -358 96 -32 75 -36 146 -15 227 49 179 255 252
378 134 22 -21 31 -24 45 -16 45 28 9 81 -81 119 -51 21 -160 19 -222 -5z"/>
<path d="M2642 872 c-109 -39 -181 -129 -203 -254 -30 -169 41 -322 180 -387
47 -22 70 -26 141 -26 77 0 90 3 140 31 30 17 62 43 70 58 15 27 14 28 -25 62
-56 47 -70 50 -106 20 -80 -67 -186 -37 -235 68 -38 82 -30 172 23 244 47 63
136 82 201 42 43 -26 50 -25 95 15 51 45 47 70 -16 109 -41 25 -60 30 -130 33
-62 3 -95 -1 -135 -15z"/>
<path d="M1508 713 l-3 -58 -40 -5 c-35 -4 -40 -8 -40 -30 0 -22 5 -26 40 -30
l40 -5 5 -160 c3 -88 9 -167 13 -175 13 -26 48 -42 94 -42 50 0 67 11 61 38
-3 15 -12 19 -46 19 -27 0 -46 5 -52 15 -5 8 -10 81 -10 162 l0 147 53 3 c48
3 52 5 52 28 0 23 -4 25 -52 28 l-52 3 -3 57 c-3 54 -5 57 -30 60 -26 3 -27 2
-30 -55z"/>
<path d="M3186 650 c-34 -31 -35 -31 -38 -8 -3 21 -9 23 -65 26 -58 3 -63 1
-68 -20 -3 -13 -4 -113 -3 -223 l3 -200 65 0 65 0 5 138 c5 137 5 139 33 163
20 17 40 24 71 24 52 0 66 13 66 61 0 60 -7 69 -56 69 -34 0 -51 -6 -78 -30z"/>
<path d="M3444 661 c-168 -76 -179 -332 -17 -423 84 -48 205 -37 270 24 31 29
29 41 -11 72 -42 31 -50 32 -83 6 -14 -11 -41 -20 -59 -20 -41 0 -90 39 -81
63 6 15 25 17 142 17 158 0 155 -2 137 98 -20 121 -88 182 -199 182 -35 0 -74
-8 -99 -19z m146 -113 c11 -12 19 -27 17 -33 -5 -14 -137 -19 -150 -6 -8 8 -3
19 13 36 31 33 90 35 120 3z"/>
<path d="M3980 659 c-19 -12 -38 -26 -42 -32 -3 -6 -8 1 -10 14 -3 21 -9 24
-53 27 -38 3 -52 -1 -62 -14 -19 -26 -19 -602 0 -628 10 -13 24 -17 67 -14
l55 3 3 117 3 117 38 -20 c48 -24 126 -27 168 -5 41 21 88 76 104 123 8 21 13
70 13 108 0 83 -26 140 -87 189 -51 41 -144 48 -197 15z m117 -133 c24 -21 28
-31 28 -79 0 -75 -28 -107 -95 -107 -36 0 -52 5 -69 24 -43 46 -36 137 13 171
32 23 90 19 123 -9z"/>
<path d="M4418 670 c-84 -25 -109 -67 -65 -108 28 -26 44 -28 68 -6 10 9 37
19 61 21 37 4 47 1 67 -21 14 -14 21 -29 17 -33 -4 -5 -43 -13 -86 -19 -43 -6
-96 -20 -116 -31 -96 -49 -98 -199 -4 -248 56 -29 155 -19 193 19 14 15 16 14
22 -4 6 -18 14 -21 63 -18 l57 3 0 165 c0 148 -2 169 -21 205 -30 58 -83 85
-164 84 -36 0 -77 -4 -92 -9z m152 -289 c0 -56 -87 -93 -135 -58 -13 10 -16
21 -12 39 8 32 39 46 100 47 46 1 47 0 47 -28z"/>
<path d="M4825 666 c-69 -30 -108 -112 -85 -180 15 -48 49 -72 132 -97 68 -20
94 -43 67 -60 -22 -14 -73 -11 -95 6 -30 23 -57 16 -88 -22 -35 -41 -30 -58
27 -86 48 -24 157 -25 215 -2 72 29 107 104 82 179 -15 46 -48 69 -137 95 -71
21 -85 35 -61 59 16 16 43 15 80 -4 30 -15 31 -15 64 17 19 18 34 41 34 51 0
46 -162 76 -235 44z"/>
<path d="M1150 653 c-77 -28 -100 -52 -74 -77 13 -14 19 -13 52 4 22 12 56 20
85 20 41 0 53 -5 78 -30 22 -22 29 -37 27 -57 -3 -27 -5 -28 -83 -34 -133 -9
-185 -43 -193 -127 -8 -93 43 -143 145 -143 55 0 98 18 117 50 8 13 11 12 16
-9 4 -18 13 -25 30 -25 l25 0 -4 170 c-4 193 -10 214 -71 245 -37 19 -115 26
-150 13z m164 -271 c-2 -82 -77 -136 -156 -112 -86 25 -75 122 17 150 16 5 55
8 85 7 l55 -2 -1 -43z"/>
<path d="M1854 641 c-18 -11 -35 -25 -39 -31 -5 -8 -11 -4 -19 12 -6 12 -20
23 -31 23 -19 0 -20 -9 -23 -213 l-2 -213 27 3 28 3 5 147 c6 172 15 192 96
220 40 13 50 21 52 42 3 23 0 26 -30 26 -18 0 -47 -9 -64 -19z"/>
<path d="M2081 638 c-134 -66 -158 -272 -44 -380 37 -35 77 -49 139 -49 117 0
199 76 211 197 19 182 -149 310 -306 232z m177 -60 c66 -40 90 -142 53 -224
-64 -142 -260 -110 -286 47 -12 72 32 165 90 189 39 16 106 11 143 -12z"/>
<path d="M607 644 c-4 -4 -7 -77 -7 -163 0 -179 14 -227 70 -256 64 -33 168
-15 204 36 14 21 14 21 18 -7 2 -23 9 -30 31 -32 l27 -3 -2 213 -3 213 -25 0
-25 0 -5 -140 c-4 -116 -8 -146 -25 -175 -42 -72 -145 -90 -183 -33 -14 22
-18 58 -22 188 -5 152 -6 160 -25 163 -12 2 -24 0 -28 -4z"/>
</g>
</svg>
